<svg xmlns="http://www.w3.org/2000/svg" width="1200" height="800" viewBox="0 0 1200 800" role="img" aria-label="Illustrated Siquijor falls scene"><defs><linearGradient id="sky" x2="0" y2="1"><stop stop-color="#0c5c5d"/><stop offset=".7" stop-color="#69c9c1"/><stop offset="1" stop-color="#a1e7d0"/></linearGradient></defs><rect width="1200" height="800" fill="url(#sky)"/><circle cx="915" cy="150" r="82" fill="#fff3cd" opacity=".65"/><path d="M0 450 Q180 240 380 355T750 305T1200 370V800H0Z" fill="#2a7861"/><path d="M0 550Q230 395 490 480T1200 440V800H0Z" fill="#1b5b50"/><path d="M460 325q100 35 280 0l-30 300q-120 65-230-20Z" fill="#c8f5e9" opacity=".94"/><path d="M0 635q350-120 580 0t620-45V800H0Z" fill="#2c9fa0"/><path d="M0 715q320-75 590 0t610-30" stroke="#b1f6e7" stroke-width="12" fill="none" opacity=".58"/><text x="1160" y="765" fill="#fff" font-size="17" font-family="Arial" text-anchor="end" opacity=".65">ISLA SIQUIJOR · ILLUSTRATION</text></svg>